<?xml version="1.0" encoding="UTF-8" standalone="no"?>
<svg
   width="71.087547mm"
   height="71.087547mm"
   viewBox="0 0 71.087547 71.087547"
   version="1.1"
   id="svg5"
   xmlns="http://www.w3.org/2000/svg"
   xmlns:svg="http://www.w3.org/2000/svg">
  <defs
     id="defs2" />
  <circle
     style="fill:#000000;fill-opacity:1;stroke-width:0.566458;stroke-linecap:round;stroke-linejoin:round"
     id="path963-7-9"
     cx="35.543774"
     cy="35.543774"
     r="35.543774" />
  <path
     id="text4585-2-1-7"
     style="font-style:normal;font-weight:normal;font-size:49.8425px;line-height:1.25;font-family:sans-serif;fill:#ffffff;fill-opacity:1;stroke:#000000;stroke-width:1.24607;stroke-opacity:1"
     d="m 27.466102,48.684502 v 10.194726 h 9.881053 c 5.451522,0 9.540155,-0.389617 12.265916,-1.168405 2.725761,-0.795015 5.061903,-2.133703 7.008876,-4.015774 1.703599,-1.638703 2.969204,-3.528785 3.796668,-5.670455 0.827463,-2.157897 1.241266,-4.607954 1.241266,-7.34994 0,-2.709537 -0.413803,-5.134888 -1.241266,-7.27656 -0.827464,-2.14167 -2.093069,-4.031753 -3.796668,-5.670455 C 54.691198,25.845567 52.371183,24.514942 49.661649,23.736153 49.254958,23.616106 48.811855,23.50631 48.340798,23.40439 45.692256,22.831343 42.0306,22.543461 37.347155,22.543461 h -0.242364 -9.638689 v 19.085656 h 0.588595 c 0.478631,0 0.942951,-0.01479 1.393198,-0.04444 0.450247,-0.02966 0.886587,-0.07401 1.308447,-0.133326 0.210931,-0.02966 0.418351,-0.06318 0.622183,-0.100251 0.203835,-0.03707 0.403746,-0.07798 0.60048,-0.122473 0.196736,-0.04449 0.390173,-0.09279 0.579811,-0.144695 0.189637,-0.0519 0.375565,-0.107077 0.558106,-0.166396 0.182539,-0.05932 0.361477,-0.122402 0.536917,-0.189138 0.175442,-0.06673 0.34739,-0.137205 0.515731,-0.211354 0.168344,-0.07415 0.333301,-0.152014 0.494543,-0.23358 0.161245,-0.08156 0.318696,-0.166817 0.47284,-0.255796 0.154143,-0.08898 0.305125,-0.181623 0.45217,-0.278022 0.147042,-0.0964 0.29052,-0.196942 0.430464,-0.300754 0.139943,-0.103815 0.275918,-0.211236 0.40876,-0.322461 0.132842,-0.111228 0.262347,-0.226039 0.388091,-0.344683 0.0068,-0.0063 0.01289,-0.01328 0.01963,-0.01963 V 29.62572 h 2.998782 0.359669 c 3.845269,0 6.773638,0.941012 8.785508,2.823083 0.147791,0.138256 0.288364,0.28293 0.425299,0.430467 1.727147,1.860873 2.592605,4.458081 2.592605,7.795389 0,3.618125 -1.014095,6.376649 -3.04219,8.274947 -2.011873,1.898298 -4.932177,2.847372 -8.761222,2.847372 H 36.83607 v -4.086572 c -0.286158,0.07038 -0.585304,0.137084 -0.89762,0.199986 -0.312317,0.0629 -0.637736,0.121811 -0.976167,0.177252 -0.338434,0.05544 -0.690214,0.107556 -1.054717,0.155546 -0.364506,0.04799 -0.741698,0.09226 -1.132231,0.132808 -0.390533,0.04055 -0.794264,0.07694 -1.210779,0.110071 -0.416517,0.03313 -0.845838,0.06265 -1.288293,0.08837 -0.442457,0.02572 -0.897975,0.04782 -1.366324,0.06615 -0.468352,0.01834 -0.949637,0.03299 -1.443842,0.04393 z" />
  <path
     id="text4585-0-6"
     style="font-style:normal;font-weight:normal;font-size:49.8425px;line-height:1.25;font-family:sans-serif;fill:#ffffff;fill-opacity:1;stroke:#000000;stroke-width:1.24607;stroke-opacity:1"
     d="m 15.326276,12.375607 v 36.335766 h 9.881049 c 0.783868,0 1.531268,-0.01077 2.258777,-0.02687 3.953632,-0.08751 7.080711,-0.411067 9.369973,-0.9741 0.219133,-0.0539 0.433287,-0.109181 0.637169,-0.167434 2.725762,-0.795012 5.062419,-2.133701 7.009392,-4.015774 1.703599,-1.638703 2.968686,-3.528785 3.796149,-5.670455 0.580663,-1.514277 0.953358,-3.175569 1.126549,-4.977474 -0.02043,-0.02201 -0.03928,-0.04538 -0.05995,-0.06718 -0.117883,-0.124347 -0.239609,-0.245655 -0.365353,-0.363286 -0.12574,-0.117629 -0.254669,-0.231302 -0.387572,-0.34158 -0.132903,-0.110279 -0.269729,-0.216951 -0.409795,-0.319879 -0.140065,-0.102925 -0.283755,-0.202081 -0.430979,-0.297656 -0.147228,-0.09557 -0.297781,-0.18773 -0.452171,-0.27595 -0.154389,-0.08822 -0.312322,-0.172863 -0.473871,-0.253733 -0.161552,-0.08087 -0.326866,-0.15799 -0.495578,-0.23151 -0.168711,-0.07352 -0.340892,-0.143124 -0.516765,-0.209288 -0.175874,-0.06617 -0.355431,-0.128773 -0.538467,-0.187587 -0.183036,-0.05881 -0.369459,-0.113901 -0.559657,-0.165365 -0.190196,-0.05146 -0.384001,-0.09955 -0.581359,-0.14366 -0.19736,-0.04411 -0.398544,-0.08416 -0.603065,-0.120923 -0.20452,-0.03676 -0.412567,-0.06981 -0.62425,-0.09922 -0.211682,-0.0294 -0.427111,-0.05546 -0.645956,-0.07751 -0.218845,-0.02207 -0.44114,-0.04059 -0.667142,-0.05529 -0.226007,-0.01471 -0.455681,-0.02572 -0.688847,-0.03307 -0.233167,-0.0074 -0.469705,-0.01085 -0.710034,-0.01085 h -0.359669 c 0.014,0.288547 0.02326,0.580564 0.02326,0.881084 0,3.60603 -1.007478,6.357627 -3.022036,8.255309 -0.0067,0.0064 -0.01286,0.01328 -0.01963,0.01963 -2.011873,1.898298 -4.932693,2.847372 -8.76174,2.847372 H 27.46611 24.696254 V 19.457862 h 3.358451 c 3.845272,0 6.774156,0.941009 8.786027,2.823083 0.09087,0.08501 0.177299,0.173997 0.264067,0.262516 h 0.242364 c 0.689551,0 1.357018,0.0062 2.002461,0.0186 0.645441,0.01242 1.268839,0.03148 1.870171,0.05633 0.601329,0.02485 1.18066,0.05575 1.737876,0.09302 0.55722,0.03727 1.09248,0.08054 1.605586,0.130225 0.51311,0.04969 1.003782,0.105837 1.47278,0.167948 0.234497,0.03105 0.463825,0.06351 0.687297,0.09767 0.22347,0.03416 0.441264,0.0697 0.653706,0.106971 0.212442,0.03727 0.419219,0.07642 0.620633,0.116788 0.117629,0.02358 0.229265,0.04874 0.343133,0.07338 -0.02148,-0.0575 -0.03995,-0.117055 -0.06201,-0.17415 -0.827471,-2.141669 -2.092558,-4.031752 -3.796157,-5.670454 -1.930749,-1.882073 -4.25128,-3.212698 -6.960817,-3.991487 -2.69331,-0.795014 -6.798071,-1.192692 -12.314494,-1.192692 z" />
</svg>
