<?xml version="1.0" encoding="UTF-8" standalone="no"?>
<svg
   width="71.087547mm"
   height="71.087547mm"
   viewBox="0 0 71.087547 71.087547"
   version="1.1"
   id="svg5"
   xmlns="http://www.w3.org/2000/svg"
   xmlns:svg="http://www.w3.org/2000/svg">
  <defs
     id="defs2" />
  <g
     id="layer1"
     transform="translate(-11.85437,-49.801487)">
    <circle
       style="fill:#000000;fill-opacity:1;stroke-width:0.566458;stroke-linecap:round;stroke-linejoin:round"
       id="path963"
       cx="47.398144"
       cy="85.345261"
       r="35.543774" />
    <g
       id="g826"
       transform="translate(0.45087303,0.36106287)">
      <path
         id="path951"
         style="font-size:54.2099px;line-height:25.4109px;font-family:Arial;-inkscape-font-specification:'Arial, Normal';text-align:justify;letter-spacing:0px;word-spacing:0px;fill:#ffffff;stroke-width:3.84163px"
         d="m 100.51367,84.556641 v 82.345699 h 13.84375 c 1.95784,0 3.80162,-0.0474 5.56446,-0.125 v -64.91211 h 30.8125 c 11.53827,0 19.90909,0.99915 25.11132,3 7.20309,2.8012 13.3045,8.33722 18.30664,16.60743 5.06884,8.20351 7.60352,19.97649 7.60352,35.3164 0,11.07142 -1.29928,20.50721 -3.90039,28.31055 -2.53442,7.73665 -6.10311,13.90779 -10.70508,18.50977 -3.26807,3.26805 -7.66937,5.80079 -13.20508,7.60156 -5.46901,1.80077 -13.04012,2.70117 -22.71093,2.70117 h -31.3125 v -20.41406 c -1.10844,0.027 -2.22683,0.0449 -3.36524,0.0449 h -16.04297 v 37.67773 h 52.92188 c 8.87047,0 16.70685,-0.83457 23.50976,-2.50195 6.86961,-1.6674 12.70576,-4.10137 17.50781,-7.30273 4.86876,-3.26806 9.33785,-7.70227 13.40626,-13.30469 4.0684,-5.66909 7.40279,-12.80647 10.0039,-21.41016 2.60111,-8.60368 3.90234,-18.47517 3.90234,-29.61328 10e-6,-13.07227 -1.93441,-24.67677 -5.80273,-34.81445 -3.80163,-10.20438 -9.57195,-18.57519 -17.30859,-25.111331 -5.93588,-5.068837 -13.10421,-8.569743 -21.50782,-10.503906 -6.00257,-1.4006 -14.70644,-2.101562 -26.11132,-2.101562 z m 19.40821,91.572269 c -1.78303,0.0679 -3.63295,0.10351 -5.56446,0.10351 h -13.84375 v 7.98047 h 16.04297 c 1.14416,0 2.26081,-0.0196 3.36524,-0.0488 z"
         transform="matrix(0.26458333,0,0,0.26458333,11.85437,49.801487)" />
      <path
         id="path1258"
         style="font-size:54.2099px;line-height:25.4109px;font-family:Arial;-inkscape-font-specification:'Arial, Normal';text-align:justify;letter-spacing:0px;word-spacing:0px;fill:#ffffff;stroke-width:3.84163px"
         d="M 63.636719,42.212891 V 188.87695 h 52.921871 c 8.87047,0 16.70685,-0.83457 23.50977,-2.50195 6.86961,-1.66738 12.70576,-4.10136 17.50781,-7.30273 4.86876,-3.26807 9.33784,-7.70229 13.40625,-13.30469 4.06841,-5.6691 7.40279,-12.80647 10.00391,-21.41016 2.44517,-8.08789 3.72646,-17.31113 3.87305,-27.63867 -3.25855,-3.54002 -6.81127,-5.98791 -10.6875,-7.49805 -2.13992,-0.82304 -5.34497,-1.5124 -9.5,-1.98828 0.13485,2.31226 0.20703,4.71077 0.20703,7.21289 0,11.07142 -1.29928,20.50721 -3.90039,28.31055 -2.53442,7.73665 -6.10311,13.90779 -10.70508,18.50976 -3.26807,3.26807 -7.66938,5.8008 -13.20508,7.60157 -5.46901,1.80077 -13.04013,2.70117 -22.71094,2.70117 H 83.044922 V 59.521484 h 30.812498 c 11.53828,0 19.9091,0.999141 25.11133,3 7.20309,2.8012 13.30645,8.337211 18.30859,16.607422 0.17152,0.27759 0.33234,0.569708 0.49805,0.855469 8.37431,0.225597 15.13519,0.896407 20.41992,2.128906 h 0.008 c 0.61404,0.141396 1.22262,0.291608 1.82618,0.449219 -0.30207,-0.886899 -0.6131,-1.767304 -0.94336,-2.632812 -3.80163,-10.204372 -9.56999,-18.575193 -17.30664,-25.111329 -5.93588,-5.068837 -13.10617,-8.569743 -21.50977,-10.503906 -6.00257,-1.4006 -14.70644,-2.101562 -26.11133,-2.101562 z m 98.156251,47.27539 c 0.75761,2.534216 1.3713,5.269822 1.84961,8.197266 5.57117,0.494465 10.15535,1.389381 13.88086,2.822263 l 0.008,0.008 h 0.008 c 2.41801,0.94034 4.71282,2.15672 6.89063,3.61719 -0.33244,-3.76764 -0.84864,-7.396573 -1.54688,-10.886716 -2.13978,-0.808485 -4.39699,-1.487903 -6.7832,-2.03711 h -0.008 l -0.008,-0.0078 c -3.48242,-0.812568 -8.29263,-1.397971 -14.29101,-1.712891 z"
         transform="matrix(0.26458333,0,0,0.26458333,11.85437,49.801487)" />
    </g>
  </g>
</svg>
